<svg width="60" height="60" viewBox="0 0 60 60" fill="none" xmlns="http://www.w3.org/2000/svg">
<path d="M44 19.3177C42.9497 19.8882 41.8384 20.264 40.7013 20.4333C41.8963 19.5586 42.795 18.169 43.2288 16.525C42.099 17.3509 40.8649 17.9303 39.5795 18.2385C39.0382 17.5295 38.3872 16.9654 37.6661 16.5805C36.945 16.1957 36.1688 15.9982 35.3847 16C32.2103 16 29.6413 19.1646 29.6413 23.0656C29.639 23.6082 29.6887 24.1492 29.7894 24.6771C27.5131 24.5437 25.2841 23.8178 23.245 22.5459C21.2059 21.274 19.4017 19.4841 17.9477 17.2906C17.4377 18.3655 17.1679 19.5919 17.1667 20.8417C17.1667 23.2917 18.1893 25.4573 19.7333 26.726C18.8185 26.6989 17.9224 26.3962 17.1212 25.8437V25.9312C17.1212 29.3583 19.1045 32.2093 21.7295 32.8583C21.2359 33.0228 20.7272 33.1061 20.2163 33.1062C19.8538 33.107 19.4922 33.063 19.1366 32.975C19.8663 35.7822 21.9903 37.8239 24.5062 37.8822C22.4618 39.8517 19.9519 40.9161 17.3708 40.9083C16.9127 40.9074 16.455 40.8733 16 40.8062C18.6257 42.902 21.6778 44.0105 24.7932 43.9999C35.3725 43.9999 41.1522 33.2302 41.1522 23.8896C41.1522 23.5833 41.1457 23.2771 41.1341 22.9781C42.2559 21.9807 43.2264 20.7411 44 19.3177V19.3177Z" fill="#FEFAE0"/>
<path fill-rule="evenodd" clip-rule="evenodd" d="M53 30C53 42.7025 42.7025 53 30 53C17.2975 53 7 42.7025 7 30C7 17.2975 17.2975 7 30 7C42.7025 7 53 17.2975 53 30ZM30 49.9333C41.0089 49.9333 49.9333 41.0089 49.9333 30C49.9333 18.9911 41.0089 10.0667 30 10.0667C18.9911 10.0667 10.0667 18.9911 10.0667 30C10.0667 41.0089 18.9911 49.9333 30 49.9333Z" fill="#FEFAE0"/>
</svg>
