<?xml version="1.0" encoding="UTF-8" standalone="no" ?>
<!DOCTYPE svg PUBLIC "-//W3C//DTD SVG 1.1//EN" "http://www.w3.org/Graphics/SVG/1.1/DTD/svg11.dtd">
<svg xmlns="http://www.w3.org/2000/svg" xmlns:xlink="http://www.w3.org/1999/xlink" version="1.1" width="1280" height="1024" viewBox="0 0 1280 1024" xml:space="preserve">
<desc>Created with Fabric.js 3.6.3</desc>
<defs>
</defs>
<g transform="matrix(1.9692780337941629 0 0 1.9692780337941629 639.0307692307691 511.0276970341487)" id="background-logo"  >
<rect style="stroke: none; stroke-width: 1; stroke-dasharray: none; stroke-linecap: butt; stroke-dashoffset: 0; stroke-linejoin: miter; stroke-miterlimit: 4; fill: rgb(250,255,241); fill-opacity: 0; fill-rule: nonzero; opacity: 1;"  paint-order="stroke"  x="-325" y="-260" rx="0" ry="0" width="650" height="520" />
</g>
<g transform="matrix(1.9692780337941629 0 0 1.9692780337941629 640.0154082476663 383.9449508891169)" id="logo-logo"  >
<g style=""  paint-order="stroke"   >
		<g transform="matrix(1.2220345361867786 0 0 -1.2220345361867786 -64.38095667474727 -47.03366522875672)"  >
<path style="stroke: none; stroke-width: 1; stroke-dasharray: none; stroke-linecap: butt; stroke-dashoffset: 0; stroke-linejoin: miter; stroke-miterlimit: 4; fill: rgb(137,176,174); fill-rule: evenodd; opacity: 1;"  paint-order="stroke"  transform=" translate(-337.3145816772734, -350.486)" d="m 337.285 332.625 c -14.867 -6.469 -28.351 -14 -37.097 -25.109 c -6.422 -8.157 -10.297 -18.239 -10.297 -31.243 v 16.805 c 0 10.922 0.125 18.219 11.3 27.231 l 9.403 7.578 c 0.914 -0.633 2.023 -1 3.219 -1 c 3.132 0 5.671 2.539 5.671 5.672 c 0 3.132 -2.539 5.671 -5.671 5.671 c -3.137 0 -5.676 -2.539 -5.676 -5.671 c 0 -0.379 0.039 -0.75 0.109 -1.106 c -6.836 -5.637 -14.633 -11.293 -18.301 -19.48 c -0.222 9.898 5.578 19.797 15.321 27.144 l 13.972 10.531 c 1.305 -0.968 2.918 -1.539 4.664 -1.539 c 4.328 0 7.844 3.512 7.844 7.844 c 0 4.328 -3.516 7.844 -7.844 7.844 c -4.328 0 -7.843 -3.516 -7.843 -7.844 c 0 -0.555 0.062 -1.098 0.168 -1.617 l -12.911 -9.734 c -5.921 -4.457 -10.589 -10.602 -13.429 -17 c 0 25.472 28.113 38.996 46.758 51.648 c 1.609 -0.996 3.507 -1.574 5.535 -1.574 c 5.804 0 10.511 4.707 10.511 10.508 c 0 5.804 -4.707 10.507 -10.511 10.507 c -5.801 0 -10.508 -4.703 -10.508 -10.507 c 0 -0.942 0.129 -1.852 0.359 -2.723 c -15.621 -11.145 -34.039 -20.977 -42.144 -39.273 v 1.531 c 0 40.597 55.101 59.703 94.797 76.98 c 0 -37.086 3.675 -69.851 -47.399 -92.074" stroke-linecap="round" />
</g>
		<g transform="matrix(1.2220345361867786 0 0 -1.2220345361867786 -62.520047068922395 72.5436361716558)"  >
<path style="stroke: none; stroke-width: 1; stroke-dasharray: none; stroke-linecap: butt; stroke-dashoffset: 0; stroke-linejoin: miter; stroke-miterlimit: 4; fill: rgb(190,227,219); fill-rule: evenodd; opacity: 1;"  paint-order="stroke"  transform=" translate(-338.8373779246133, -252.635)" d="m 310.965 305.973 c 14.758 -11.446 35.449 -17 48.316 -27.129 c 27.559 -21.688 25.403 -48.918 25.403 -79.547 c -25.012 10.883 -71.7 29.375 -84.524 48.894 c -9.379 14.278 -9.851 33.055 0.028 45.954 c 2.691 3.418 7.285 9.015 10.777 11.828" stroke-linecap="round" />
</g>
		<g transform="matrix(1.2220345361867786 0 0 -1.2220345361867786 64.38154110787082 47.03366522875683)"  >
<path style="stroke: none; stroke-width: 1; stroke-dasharray: none; stroke-linecap: butt; stroke-dashoffset: 0; stroke-linejoin: miter; stroke-miterlimit: 4; fill: rgb(137,176,174); fill-rule: evenodd; opacity: 1;"  paint-order="stroke"  transform=" translate(-442.6818965687224, -273.51)" d="m 442.711 291.371 c 14.867 6.473 28.352 14 37.102 25.109 c 6.421 8.157 10.296 18.239 10.296 31.243 v -16.805 c 0 -10.922 -0.125 -18.219 -11.304 -27.23 l -9.399 -7.579 c -0.914 0.633 -2.023 1 -3.218 1 c -3.133 0 -5.672 -2.539 -5.672 -5.671 c 0 -3.133 2.539 -5.672 5.672 -5.672 c 3.132 0 5.671 2.539 5.671 5.672 c 0 0.378 -0.039 0.75 -0.109 1.105 c 6.836 5.637 14.637 11.293 18.305 19.48 c 0.222 -9.898 -5.578 -19.796 -15.321 -27.144 l -13.972 -10.531 c -1.305 0.968 -2.918 1.539 -4.668 1.539 c -4.328 0 -7.84 -3.512 -7.84 -7.844 c 0 -4.328 3.512 -7.844 7.84 -7.844 c 4.332 0 7.844 3.516 7.844 7.844 c 0 0.555 -0.055 1.098 -0.168 1.617 l 12.914 9.735 c 5.921 4.457 10.593 10.601 13.425 17 c 0 -25.473 -28.109 -38.997 -46.757 -51.649 c -1.61 0.996 -3.504 1.574 -5.536 1.574 c -5.8 0 -10.507 -4.707 -10.507 -10.507 c 0 -5.805 4.707 -10.508 10.507 -10.508 c 5.805 0 10.508 4.703 10.508 10.508 c 0 0.941 -0.125 1.851 -0.355 2.722 c 15.617 11.145 34.039 20.977 42.14 39.274 v -1.532 c 0 -40.597 -55.097 -59.703 -94.796 -76.98 c 0 37.086 -3.676 69.851 47.398 92.074" stroke-linecap="round" />
</g>
		<g transform="matrix(1.2220345361867786 0 0 -1.2220345361867786 62.52326665125054 -72.5436361716558)"  >
<path style="stroke: none; stroke-width: 1; stroke-dasharray: none; stroke-linecap: butt; stroke-dashoffset: 0; stroke-linejoin: miter; stroke-miterlimit: 4; fill: rgb(190,227,219); fill-rule: evenodd; opacity: 1;"  paint-order="stroke"  transform=" translate(-441.16125668368375, -371.36100000000005)" d="m 469.031 318.023 c -14.758 11.45 -35.445 17 -48.316 27.129 c -27.555 21.688 -25.402 48.918 -25.402 79.547 c 25.015 -10.883 71.699 -29.375 84.527 -48.894 c 9.379 -14.278 9.851 -33.055 -0.027 -45.95 c -2.696 -3.421 -7.29 -9.019 -10.782 -11.832" stroke-linecap="round" />
</g>
</g>
</g>
<g transform="matrix(1.9692780337941629 0 0 1.9692780337941629 641.8515100081789 749.2693184212504)" id="text-logo-path"  >
<path style="stroke: none; stroke-width: 0; stroke-dasharray: none; stroke-linecap: butt; stroke-dashoffset: 0; stroke-linejoin: miter; stroke-miterlimit: 4; fill: rgb(137,176,174); fill-rule: nonzero; opacity: 1;"  paint-order="stroke"  transform=" translate(-254.775, 19.369999999999997)" d="M 13.69 0 L 4.34 0 L 4.34 -38.77 L 13.69 -38.77 L 13.69 -21.71 L 28.5 -38.77 L 40.25 -38.77 L 26.91 -23.13 L 43.08 0 L 30.95 0 L 20.35 -16 L 13.69 -8.71 L 13.69 0 Z M 78.6 0 L 48.9 0 L 48.9 -38.77 L 78.6 -38.77 L 78.6 -30.09 L 58.25 -30.09 L 58.25 -23.43 L 75.23 -23.43 L 75.23 -15.34 L 58.25 -15.34 L 58.25 -8.66 L 78.6 -8.66 L 78.6 0 Z M 94.99 0 L 85.58 0 L 85.58 -38.77 L 94.99 -38.77 L 114.61 -15.11 L 114.61 -38.77 L 124.02 -38.77 L 124.02 0 L 114.61 0 L 94.99 -23.71 L 94.99 0 Z M 149.29 0 L 132.15 0 L 132.15 -38.71 L 149.29 -38.77 Q 149.37 -38.77 149.46 -38.77 L 149.46 -38.77 Q 154.05 -38.8 157.86 -37.35 L 157.86 -37.35 Q 161.73 -35.9 164.32 -33.31 Q 166.91 -30.73 168.33 -27.16 Q 169.75 -23.6 169.75 -19.43 L 169.75 -19.43 Q 169.75 -13.83 167.17 -9.41 Q 164.6 -4.98 159.92 -2.49 Q 155.25 0 149.29 0 L 149.29 0 Z M 141.5 -30.09 L 141.5 -8.66 L 149.29 -8.66 Q 154.19 -8.66 157.24 -11.62 Q 160.28 -14.58 160.28 -19.43 L 160.28 -19.43 Q 160.28 -24.55 157.32 -27.32 Q 154.36 -30.09 149.29 -30.09 L 149.29 -30.09 L 141.5 -30.09 Z M 180.52 0 L 170.61 0 L 187.2 -38.77 L 197.61 -38.77 L 214.25 0 L 204.29 0 L 201.78 -6.04 L 183.08 -6.04 L 180.52 0 Z M 192.49 -28.17 L 186.34 -13.69 L 198.53 -13.69 L 192.49 -28.17 Z M 250.29 0 L 220.6 0 L 220.6 -38.77 L 229.95 -38.77 L 229.95 -8.66 L 250.29 -8.66 L 250.29 0 Z M 286.64 0 L 256.95 0 L 256.95 -38.77 L 266.3 -38.77 L 266.3 -8.66 L 286.64 -8.66 L 286.64 0 Z M 304.9 -19.68 L 304.9 -19.68 Q 304.9 -23.69 306.49 -27.3 Q 308.07 -30.92 310.83 -33.59 Q 313.58 -36.27 317.51 -37.85 Q 321.43 -39.44 325.89 -39.44 L 325.89 -39.44 Q 331.95 -39.44 336.7 -36.84 Q 341.44 -34.23 344.12 -29.75 L 344.12 -29.75 L 336.18 -25.13 Q 334.76 -27.86 332.12 -29.43 Q 329.48 -31 325.89 -31 L 325.89 -31 Q 320.85 -31 317.61 -27.76 Q 314.36 -24.52 314.36 -19.68 L 314.36 -19.68 Q 314.36 -16.62 315.81 -13.97 Q 317.26 -11.33 319.92 -9.71 Q 322.57 -8.1 325.89 -8.1 L 325.89 -8.1 Q 329.34 -8.1 331.97 -9.69 Q 334.6 -11.27 336.07 -13.97 L 336.07 -13.97 L 344 -9.41 Q 341.28 -4.84 336.54 -2.07 Q 331.81 0.7 325.89 0.7 L 325.89 0.7 Q 321.4 0.7 317.49 -0.89 Q 313.58 -2.48 310.83 -5.19 Q 308.07 -7.9 306.49 -11.66 Q 304.9 -15.42 304.9 -19.68 Z M 346.62 -19.37 L 346.62 -19.37 Q 346.62 -23.43 348.19 -27.14 Q 349.77 -30.84 352.44 -33.54 Q 355.11 -36.24 358.81 -37.84 Q 362.51 -39.44 366.6 -39.44 L 366.6 -39.44 Q 370.64 -39.44 374.35 -37.84 Q 378.07 -36.24 380.74 -33.54 Q 383.41 -30.84 385.01 -27.12 Q 386.61 -23.41 386.61 -19.37 L 386.61 -19.37 Q 386.61 -15.31 385.03 -11.59 Q 383.44 -7.88 380.76 -5.19 Q 378.07 -2.5 374.35 -0.9 Q 370.64 0.7 366.6 0.7 L 366.6 0.7 Q 361.15 0.7 356.54 -2 Q 351.94 -4.7 349.28 -9.31 Q 346.62 -13.92 346.62 -19.37 Z M 355.16 -19.37 L 355.16 -19.37 Q 355.16 -14.64 358.52 -11.31 Q 361.87 -7.99 366.6 -7.99 L 366.6 -7.99 Q 371.28 -7.99 374.62 -11.31 Q 377.96 -14.64 377.96 -19.37 L 377.96 -19.37 Q 377.96 -24.05 374.62 -27.39 Q 371.28 -30.73 366.6 -30.73 L 366.6 -30.73 Q 361.87 -30.73 358.52 -27.4 Q 355.16 -24.07 355.16 -19.37 Z M 409.91 0 L 392.77 0 L 392.77 -38.71 L 409.91 -38.77 Q 409.99 -38.77 410.08 -38.77 L 410.08 -38.77 Q 414.67 -38.8 418.48 -37.35 L 418.48 -37.35 Q 422.35 -35.9 424.94 -33.31 Q 427.53 -30.73 428.95 -27.16 Q 430.37 -23.6 430.37 -19.43 L 430.37 -19.43 Q 430.37 -13.83 427.79 -9.41 Q 425.22 -4.98 420.54 -2.49 Q 415.87 0 409.91 0 L 409.91 0 Z M 402.12 -30.09 L 402.12 -8.66 L 409.91 -8.66 Q 414.81 -8.66 417.86 -11.62 Q 420.9 -14.58 420.9 -19.43 L 420.9 -19.43 Q 420.9 -24.55 417.94 -27.32 Q 414.98 -30.09 409.91 -30.09 L 409.91 -30.09 L 402.12 -30.09 Z M 466.63 0 L 436.94 0 L 436.94 -38.77 L 466.63 -38.77 L 466.63 -30.09 L 446.29 -30.09 L 446.29 -23.43 L 463.26 -23.43 L 463.26 -15.34 L 446.29 -15.34 L 446.29 -8.66 L 466.63 -8.66 L 466.63 0 Z M 472.42 -13.55 L 472.42 -13.55 L 481.72 -13.55 Q 481.74 -13.3 481.84 -12.89 Q 481.94 -12.47 482.48 -11.41 Q 483.02 -10.35 483.85 -9.55 Q 484.67 -8.74 486.34 -8.07 Q 488.01 -7.4 490.15 -7.4 L 490.15 -7.4 Q 493.04 -7.4 494.45 -8.42 Q 495.86 -9.44 495.86 -10.83 L 495.86 -10.83 Q 495.86 -11.55 495.45 -12.13 Q 495.05 -12.72 494.51 -13.11 Q 493.96 -13.5 492.93 -13.87 Q 491.9 -14.25 491.12 -14.46 Q 490.34 -14.67 489.01 -15 L 489.01 -15 Q 483.47 -16.31 480.85 -17.4 L 480.85 -17.4 Q 473.01 -20.65 473.01 -27.14 L 473.01 -27.14 Q 473.01 -30.62 475.11 -33.44 Q 477.21 -36.27 480.81 -37.85 Q 484.42 -39.44 488.79 -39.44 L 488.79 -39.44 Q 492.4 -39.44 495.42 -38.27 Q 498.44 -37.1 500.32 -35.22 Q 502.2 -33.34 503.22 -31.07 Q 504.23 -28.81 504.23 -26.5 L 504.23 -26.5 L 494.94 -26.5 Q 494.94 -28.14 493.2 -29.6 Q 491.46 -31.06 488.67 -31.06 L 488.67 -31.06 Q 486.36 -31.06 484.42 -30.1 Q 482.47 -29.14 482.47 -27.58 L 482.47 -27.58 Q 482.47 -26.27 484.15 -25.51 Q 485.84 -24.74 490.48 -23.55 L 490.48 -23.55 Q 495.77 -22.18 498.11 -21.12 L 498.11 -21.12 Q 504.46 -18.26 505.12 -12.77 L 505.12 -12.77 Q 505.21 -12.08 505.21 -11.36 L 505.21 -11.36 Q 505.21 -5.87 500.88 -2.59 Q 496.55 0.7 489.65 0.7 L 489.65 0.7 Q 486.14 0.7 483.21 -0.21 Q 480.27 -1.11 478.32 -2.57 Q 476.37 -4.04 475.01 -5.93 Q 473.65 -7.82 473.03 -9.76 Q 472.42 -11.69 472.42 -13.55 Z" stroke-linecap="round" />
</g>
<g transform="matrix(1.9692780337941629 0 0 1.9692780337941629 645.6419855986168 379.87830268133484)" id="tagline-8f8e608c-c013-4784-ab0a-1c7d51f54f51-logo-path"  >
<path style="stroke: none; stroke-width: 0; stroke-dasharray: none; stroke-linecap: butt; stroke-dashoffset: 0; stroke-linejoin: miter; stroke-miterlimit: 4; fill: rgb(190,227,219); fill-rule: nonzero; opacity: 1;"  paint-order="stroke"  transform=" translate(-36.615, 29.06)" d="M 16.74 0 L 6.2 0 L 6.2 -58.12 L 16.74 -58.12 L 16.74 0 Z M 28.37 -23.75 L 20.95 -23.75 L 20.95 -34.37 L 28.37 -34.37 L 52.08 -58.12 L 67.03 -58.12 L 37.16 -29.06 L 67.03 0 L 52.08 0 L 28.37 -23.75 Z" stroke-linecap="round" />
</g>
</svg>